<svg xmlns="http://www.w3.org/2000/svg" width="280" height="150" viewBox="0 0 280 150"><defs><linearGradient id="p" x1="0" y1="0" x2="1" y2="1"><stop stop-color="#fb923c"/><stop offset="1" stop-color="#9a3412"/></linearGradient><filter id="s"><feDropShadow dx="0" dy="9" stdDeviation="7" flood-opacity=".45"/></filter></defs><ellipse cx="140" cy="132" rx="112" ry="13" fill="#020617" opacity=".35"/><g filter="url(#s)"><path d="M28 78c3-22 18-35 47-37h48l33 35v32H34z" fill="url(#p)"/><path d="M83 45h34l24 28H82z" fill="#bae6fd"/><path d="M153 44l70 37" stroke="#334155" stroke-width="9" stroke-linecap="round"/><path d="M218 80l29-16" stroke="#facc15" stroke-width="5" stroke-linecap="round"/><path d="M220 82v25" stroke="#334155" stroke-width="5"/><circle cx="60" cy="109" r="22" fill="#020617"/><circle cx="60" cy="109" r="11" fill="#94a3b8"/><circle cx="151" cy="109" r="22" fill="#020617"/><circle cx="151" cy="109" r="11" fill="#94a3b8"/><path d="M38 79h98" stroke="#fff" stroke-width="4" opacity=".35"/><rect x="31" y="84" width="20" height="8" rx="4" fill="#fde68a"/><rect x="127" y="82" width="15" height="8" rx="4" fill="#fecaca"/></g></svg>
